<svg width="1" height="1" viewBox="0 0 1 1" fill="none" xmlns="http://www.w3.org/2000/svg">
<rect width="1" height="1" fill="black"/>
<path d="M0.892857 0H0.107143C0.0787268 0 0.0514746 0.0112882 0.0313814 0.0313814C0.0112882 0.0514746 0 0.0787268 0 0.107143L0 0.892857C0 0.921273 0.0112882 0.948525 0.0313814 0.968619C0.0514746 0.988712 0.0787268 1 0.107143 1H0.413504V0.660022H0.272879V0.5H0.413504V0.378036C0.413504 0.239308 0.496094 0.162679 0.622589 0.162679C0.68317 0.162679 0.746518 0.173482 0.746518 0.173482V0.309643H0.676719C0.607947 0.309643 0.586496 0.352321 0.586496 0.396094V0.5H0.740022L0.715469 0.660022H0.586496V1H0.892857C0.921273 1 0.948525 0.988712 0.968619 0.968619C0.988712 0.948525 1 0.921273 1 0.892857V0.107143C1 0.0787268 0.988712 0.0514746 0.968619 0.0313814C0.948525 0.0112882 0.921273 0 0.892857 0Z" fill="white"/>
</svg>
