<svg width="72" height="72" viewBox="0 0 72 72" fill="none" xmlns="http://www.w3.org/2000/svg">
<rect width="72" height="72" rx="10" fill="#0F0101"/>
<path d="M36 27.4275C34.3047 27.4281 32.6476 27.9314 31.2383 28.8738C29.8289 29.8161 28.7307 31.1552 28.0823 32.7217C27.434 34.2881 27.2647 36.0117 27.5958 37.6744C27.927 39.3371 28.7437 40.8642 29.9427 42.0628C31.1417 43.2614 32.6692 44.0775 34.332 44.408C35.9948 44.7385 37.7183 44.5686 39.2845 43.9197C40.8507 43.2707 42.1894 42.172 43.1312 40.7623C44.073 39.3526 44.5757 37.6953 44.5757 36C44.574 33.7264 43.6699 31.5465 42.0619 29.9391C40.4539 28.3317 38.2736 27.4284 36 27.4275ZM56.0427 20.8382C55.6063 19.7322 54.9473 18.7277 54.1065 17.887C53.2658 17.0463 52.2613 16.3873 51.1554 15.9509C47.7804 14.6186 39.7446 14.9175 36 14.9175C32.2554 14.9175 24.2277 14.6073 20.843 15.9509C19.7371 16.3873 18.7326 17.0463 17.8918 17.887C17.0511 18.7277 16.3921 19.7322 15.9557 20.8382C14.625 24.2132 14.9223 32.257 14.9223 35.9984C14.9223 39.7398 14.625 47.7739 15.9621 51.1602C16.3986 52.2661 17.0576 53.2706 17.8983 54.1114C18.739 54.9521 19.7435 55.6111 20.8495 56.0475C24.2245 57.3798 32.2602 57.0809 36.0064 57.0809C39.7527 57.0809 47.7771 57.3911 51.1618 56.0475C52.2678 55.6111 53.2723 54.9521 54.113 54.1114C54.9537 53.2706 55.6127 52.2661 56.0491 51.1602C57.3911 47.7852 57.0825 39.7414 57.0825 36C57.0825 32.2586 57.3911 24.2261 56.0491 20.8398L56.0427 20.8382ZM36 49.1786C33.3935 49.1786 30.8456 48.4057 28.6784 46.9576C26.5112 45.5095 24.822 43.4513 23.8246 41.0432C22.8271 38.6352 22.5662 35.9854 23.0747 33.429C23.5831 30.8726 24.8383 28.5244 26.6813 26.6813C28.5244 24.8383 30.8726 23.5831 33.429 23.0747C35.9854 22.5662 38.6352 22.8271 41.0432 23.8246C43.4513 24.822 45.5095 26.5112 46.9576 28.6784C48.4057 30.8456 49.1786 33.3935 49.1786 36C49.1807 37.7312 48.8413 39.4459 48.1797 41.0457C47.5182 42.6456 46.5475 44.0992 45.3234 45.3234C44.0992 46.5475 42.6456 47.5182 41.0457 48.1797C39.4459 48.8413 37.7312 49.1807 36 49.1786ZM49.7218 25.3446C49.1133 25.345 48.5184 25.1648 48.0124 24.827C47.5063 24.4892 47.1118 24.0089 46.8787 23.4468C46.6457 22.8848 46.5845 22.2663 46.703 21.6694C46.8215 21.0726 47.1144 20.5244 47.5445 20.094C47.9746 19.6637 48.5227 19.3705 49.1195 19.2517C49.7162 19.1329 50.3348 19.1937 50.897 19.4265C51.4591 19.6593 51.9397 20.0535 52.2777 20.5594C52.6158 21.0653 52.7963 21.6601 52.7963 22.2686C52.7979 22.6726 52.7198 23.073 52.5664 23.4468C52.413 23.8207 52.1873 24.1605 51.9023 24.4469C51.6173 24.7333 51.2785 24.9606 50.9054 25.1157C50.5323 25.2709 50.1323 25.3509 49.7282 25.3511L49.7218 25.3446ZM64.2857 0H7.71429C5.66833 0 3.70617 0.812753 2.25946 2.25946C0.812753 3.70617 0 5.66833 0 7.71429L0 64.2857C0 66.3317 0.812753 68.2938 2.25946 69.7405C3.70617 71.1872 5.66833 72 7.71429 72H64.2857C66.3317 72 68.2938 71.1872 69.7405 69.7405C71.1873 68.2938 72 66.3317 72 64.2857V7.71429C72 5.66833 71.1873 3.70617 69.7405 2.25946C68.2938 0.812753 66.3317 0 64.2857 0ZM61.5343 46.6071C61.327 50.7262 60.3868 54.3761 57.3798 57.375C54.3729 60.3739 50.7263 61.3334 46.612 61.5295C42.3675 61.7689 29.6421 61.7689 25.3977 61.5295C21.2786 61.3221 17.6416 60.3804 14.6298 57.375C11.618 54.3696 10.6714 50.7182 10.4754 46.6071C10.2359 42.3611 10.2359 29.6341 10.4754 25.3929C10.6827 21.2737 11.6116 17.6239 14.6298 14.625C17.648 11.6261 21.2946 10.6779 25.3977 10.4818C29.6421 10.2423 42.3675 10.2423 46.612 10.4818C50.7311 10.6891 54.3793 11.6309 57.3798 14.6362C60.3804 17.6416 61.3382 21.293 61.5343 25.4121C61.7738 29.6421 61.7738 42.3579 61.5343 46.6071Z" fill="white"/>
</svg>
