<svg width="512" height="512" viewBox="0 0 512 512" fill="none" xmlns="http://www.w3.org/2000/svg">
<path d="M459.37 199.634C459.695 204.182 459.695 208.731 459.695 213.279C459.695 351.999 354.112 511.837 161.137 511.837C101.685 511.837 46.457 494.618 0 464.731C8.447 465.705 16.568 466.03 25.34 466.03C74.395 466.03 119.553 449.462 155.614 421.198C109.482 420.223 70.822 390.01 57.502 348.426C64 349.4 70.497 350.05 77.32 350.05C86.741 350.05 96.163 348.75 104.934 346.477C56.853 336.73 20.791 294.497 20.791 243.492V242.193C34.76 249.99 51.005 254.863 68.222 255.512C39.958 236.669 21.441 204.507 21.441 168.121C21.441 148.629 26.638 130.761 35.735 115.167C87.39 178.842 165.035 220.425 252.1 224.974C250.476 217.177 249.501 209.056 249.501 200.934C249.501 143.106 296.283 96 354.435 96C384.648 96 411.937 108.67 431.105 129.137C454.82 124.589 477.561 115.817 497.704 103.797C489.906 128.163 473.338 148.63 451.572 161.624C472.689 159.351 493.156 153.502 511.998 145.381C497.706 166.172 479.837 184.689 459.37 199.634V199.634Z" fill="white"/>
</svg>
